<svg width="48" height="35" viewBox="0 0 48 35" fill="none" xmlns="http://www.w3.org/2000/svg">
<path d="M45.0799 6.84C44.8423 5.89082 44.3585 5.02114 43.6772 4.31881C42.996 3.61648 42.1414 3.10637 41.1999 2.84C37.7599 2 23.9999 2 23.9999 2C23.9999 2 10.2399 2 6.79992 2.92C5.85842 3.18637 5.00388 3.69648 4.32262 4.39881C3.64135 5.10114 3.1575 5.97082 2.91992 6.92C2.29035 10.4111 1.98239 13.9526 1.99992 17.5C1.97748 21.0741 2.28546 24.6426 2.91992 28.16C3.18184 29.0797 3.67654 29.9163 4.35621 30.589C5.03589 31.2616 5.87756 31.7476 6.79992 32C10.2399 32.92 23.9999 32.92 23.9999 32.92C23.9999 32.92 37.7599 32.92 41.1999 32C42.1414 31.7336 42.996 31.2235 43.6772 30.5212C44.3585 29.8189 44.8423 28.9492 45.0799 28C45.7046 24.5352 46.0126 21.0207 45.9999 17.5C46.0224 13.9259 45.7144 10.3574 45.0799 6.84Z" stroke="#3F3C3C" stroke-width="4" stroke-linecap="round" stroke-linejoin="round"/>
<path d="M19.4999 24.04L30.9999 17.5L19.4999 10.96V24.04Z" stroke="#3F3C3C" stroke-width="4" stroke-linecap="round" stroke-linejoin="round"/>
</svg>
